solid OpenSCAD_Model
  facet normal -1 0 0
    outer loop
      vertex 0 0 0
      vertex 0 60.6667 2.25
      vertex 0 60.6667 0
    endloop
  endfacet
  facet normal -1 -0 0
    outer loop
      vertex 0 60.6667 2.25
      vertex 0 0 0
      vertex 0 0 2.25
    endloop
  endfacet
  facet normal 0 0 1
    outer loop
      vertex 38 60.6667 2.25
      vertex 32.625 30.3333 2.25
      vertex 38 0 2.25
    endloop
  endfacet
  facet normal 0 0 1
    outer loop
      vertex 38 60.6667 2.25
      vertex 32.6131 30.5982 2.25
      vertex 32.625 30.3333 2.25
    endloop
  endfacet
  facet normal 0 0 1
    outer loop
      vertex 38 60.6667 2.25
      vertex 32.5775 30.861 2.25
      vertex 32.6131 30.5982 2.25
    endloop
  endfacet
  facet normal 0 0 1
    outer loop
      vertex 38 60.6667 2.25
      vertex 32.5185 31.1195 2.25
      vertex 32.5775 30.861 2.25
    endloop
  endfacet
  facet normal 0 0 1
    outer loop
      vertex 38 60.6667 2.25
      vertex 32.4366 31.3716 2.25
      vertex 32.5185 31.1195 2.25
    endloop
  endfacet
  facet normal 0 0 1
    outer loop
      vertex 38 60.6667 2.25
      vertex 32.3324 31.6155 2.25
      vertex 32.4366 31.3716 2.25
    endloop
  endfacet
  facet normal 0 0 1
    outer loop
      vertex 38 60.6667 2.25
      vertex 32.2067 31.8489 2.25
      vertex 32.3324 31.6155 2.25
    endloop
  endfacet
  facet normal 0 0 1
    outer loop
      vertex 38 60.6667 2.25
      vertex 32.0606 32.0702 2.25
      vertex 32.2067 31.8489 2.25
    endloop
  endfacet
  facet normal 0 0 1
    outer loop
      vertex 38 60.6667 2.25
      vertex 31.8953 32.2775 2.25
      vertex 32.0606 32.0702 2.25
    endloop
  endfacet
  facet normal 0 0 1
    outer loop
      vertex 38 60.6667 2.25
      vertex 31.7121 32.4692 2.25
      vertex 31.8953 32.2775 2.25
    endloop
  endfacet
  facet normal 0 0 1
    outer loop
      vertex 38 60.6667 2.25
      vertex 31.5124 32.6436 2.25
      vertex 31.7121 32.4692 2.25
    endloop
  endfacet
  facet normal 0 0 1
    outer loop
      vertex 38 60.6667 2.25
      vertex 31.2979 32.7995 2.25
      vertex 31.5124 32.6436 2.25
    endloop
  endfacet
  facet normal 0 0 1
    outer loop
      vertex 38 60.6667 2.25
      vertex 31.0703 32.9355 2.25
      vertex 31.2979 32.7995 2.25
    endloop
  endfacet
  facet normal 0 0 1
    outer loop
      vertex 38 60.6667 2.25
      vertex 30.8314 33.0505 2.25
      vertex 31.0703 32.9355 2.25
    endloop
  endfacet
  facet normal 0 0 1
    outer loop
      vertex 38 60.6667 2.25
      vertex 30.5831 33.1437 2.25
      vertex 30.8314 33.0505 2.25
    endloop
  endfacet
  facet normal 0 0 1
    outer loop
      vertex 38 60.6667 2.25
      vertex 30.3275 33.2142 2.25
      vertex 30.5831 33.1437 2.25
    endloop
  endfacet
  facet normal 0 0 1
    outer loop
      vertex 38 60.6667 2.25
      vertex 30.0667 33.2616 2.25
      vertex 30.3275 33.2142 2.25
    endloop
  endfacet
  facet normal 0 0 1
    outer loop
      vertex 38 60.6667 2.25
      vertex 29.8026 33.2854 2.25
      vertex 30.0667 33.2616 2.25
    endloop
  endfacet
  facet normal 0 0 1
    outer loop
      vertex 38 60.6667 2.25
      vertex 29.5374 33.2854 2.25
      vertex 29.8026 33.2854 2.25
    endloop
  endfacet
  facet normal 0 0 1
    outer loop
      vertex 38 60.6667 2.25
      vertex 29.2733 33.2616 2.25
      vertex 29.5374 33.2854 2.25
    endloop
  endfacet
  facet normal 0 0 1
    outer loop
      vertex 38 60.6667 2.25
      vertex 29.0125 33.2142 2.25
      vertex 29.2733 33.2616 2.25
    endloop
  endfacet
  facet normal 0 0 1
    outer loop
      vertex 38 60.6667 2.25
      vertex 28.7569 33.1437 2.25
      vertex 29.0125 33.2142 2.25
    endloop
  endfacet
  facet normal 0 0 1
    outer loop
      vertex 38 60.6667 2.25
      vertex 28.5086 33.0505 2.25
      vertex 28.7569 33.1437 2.25
    endloop
  endfacet
  facet normal 0 0 1
    outer loop
      vertex 38 60.6667 2.25
      vertex 28.2697 32.9355 2.25
      vertex 28.5086 33.0505 2.25
    endloop
  endfacet
  facet normal -0 0 1
    outer loop
      vertex 0 60.6667 2.25
      vertex 28.2697 32.9355 2.25
      vertex 38 60.6667 2.25
    endloop
  endfacet
  facet normal 0 0 1
    outer loop
      vertex 28.2697 32.9355 2.25
      vertex 0 60.6667 2.25
      vertex 28.0421 32.7995 2.25
    endloop
  endfacet
  facet normal 0 0 1
    outer loop
      vertex 28.0421 32.7995 2.25
      vertex 0 60.6667 2.25
      vertex 27.8276 32.6436 2.25
    endloop
  endfacet
  facet normal 0 0 1
    outer loop
      vertex 27.8276 32.6436 2.25
      vertex 0 60.6667 2.25
      vertex 27.6279 32.4692 2.25
    endloop
  endfacet
  facet normal 0 0 1
    outer loop
      vertex 27.6279 32.4692 2.25
      vertex 0 60.6667 2.25
      vertex 27.4447 32.2775 2.25
    endloop
  endfacet
  facet normal 0 0 1
    outer loop
      vertex 27.4447 32.2775 2.25
      vertex 0 60.6667 2.25
      vertex 27.2794 32.0702 2.25
    endloop
  endfacet
  facet normal 0 0 1
    outer loop
      vertex 27.2794 32.0702 2.25
      vertex 0 60.6667 2.25
      vertex 27.1333 31.8489 2.25
    endloop
  endfacet
  facet normal 0 0 1
    outer loop
      vertex 27.1333 31.8489 2.25
      vertex 0 60.6667 2.25
      vertex 27.0076 31.6155 2.25
    endloop
  endfacet
  facet normal 0 0 1
    outer loop
      vertex 26.7269 30.5982 2.25
      vertex 0 60.6667 2.25
      vertex 26.715 30.3333 2.25
    endloop
  endfacet
  facet normal 0 0 1
    outer loop
      vertex 26.7625 30.861 2.25
      vertex 0 60.6667 2.25
      vertex 26.7269 30.5982 2.25
    endloop
  endfacet
  facet normal 0 0 1
    outer loop
      vertex 26.8215 31.1195 2.25
      vertex 0 60.6667 2.25
      vertex 26.7625 30.861 2.25
    endloop
  endfacet
  facet normal 0 0 1
    outer loop
      vertex 26.9034 31.3716 2.25
      vertex 0 60.6667 2.25
      vertex 26.8215 31.1195 2.25
    endloop
  endfacet
  facet normal 0 0 1
    outer loop
      vertex 27.0076 31.6155 2.25
      vertex 0 60.6667 2.25
      vertex 26.9034 31.3716 2.25
    endloop
  endfacet
  facet normal -0 0 1
    outer loop
      vertex 32.6131 30.0684 2.25
      vertex 38 0 2.25
      vertex 32.625 30.3333 2.25
    endloop
  endfacet
  facet normal -0 0 1
    outer loop
      vertex 32.5775 29.8057 2.25
      vertex 38 0 2.25
      vertex 32.6131 30.0684 2.25
    endloop
  endfacet
  facet normal -0 0 1
    outer loop
      vertex 32.5185 29.5472 2.25
      vertex 38 0 2.25
      vertex 32.5775 29.8057 2.25
    endloop
  endfacet
  facet normal -0 0 1
    outer loop
      vertex 32.4366 29.295 2.25
      vertex 38 0 2.25
      vertex 32.5185 29.5472 2.25
    endloop
  endfacet
  facet normal -0 0 1
    outer loop
      vertex 32.3324 29.0512 2.25
      vertex 38 0 2.25
      vertex 32.4366 29.295 2.25
    endloop
  endfacet
  facet normal -0 0 1
    outer loop
      vertex 32.2067 28.8177 2.25
      vertex 38 0 2.25
      vertex 32.3324 29.0512 2.25
    endloop
  endfacet
  facet normal -0 0 1
    outer loop
      vertex 32.0606 28.5964 2.25
      vertex 38 0 2.25
      vertex 32.2067 28.8177 2.25
    endloop
  endfacet
  facet normal -0 0 1
    outer loop
      vertex 31.8953 28.3891 2.25
      vertex 38 0 2.25
      vertex 32.0606 28.5964 2.25
    endloop
  endfacet
  facet normal -0 0 1
    outer loop
      vertex 31.7121 28.1975 2.25
      vertex 38 0 2.25
      vertex 31.8953 28.3891 2.25
    endloop
  endfacet
  facet normal -0 0 1
    outer loop
      vertex 31.5124 28.023 2.25
      vertex 38 0 2.25
      vertex 31.7121 28.1975 2.25
    endloop
  endfacet
  facet normal -0 0 1
    outer loop
      vertex 31.2979 27.8672 2.25
      vertex 38 0 2.25
      vertex 31.5124 28.023 2.25
    endloop
  endfacet
  facet normal -0 0 1
    outer loop
      vertex 31.0703 27.7312 2.25
      vertex 38 0 2.25
      vertex 31.2979 27.8672 2.25
    endloop
  endfacet
  facet normal -0 0 1
    outer loop
      vertex 30.8314 27.6161 2.25
      vertex 38 0 2.25
      vertex 31.0703 27.7312 2.25
    endloop
  endfacet
  facet normal -0 0 1
    outer loop
      vertex 30.5831 27.523 2.25
      vertex 38 0 2.25
      vertex 30.8314 27.6161 2.25
    endloop
  endfacet
  facet normal -0 0 1
    outer loop
      vertex 30.3275 27.4524 2.25
      vertex 38 0 2.25
      vertex 30.5831 27.523 2.25
    endloop
  endfacet
  facet normal -0 0 1
    outer loop
      vertex 30.0667 27.4051 2.25
      vertex 38 0 2.25
      vertex 30.3275 27.4524 2.25
    endloop
  endfacet
  facet normal -0 0 1
    outer loop
      vertex 29.8026 27.3813 2.25
      vertex 38 0 2.25
      vertex 30.0667 27.4051 2.25
    endloop
  endfacet
  facet normal -0 0 1
    outer loop
      vertex 29.5374 27.3813 2.25
      vertex 38 0 2.25
      vertex 29.8026 27.3813 2.25
    endloop
  endfacet
  facet normal 0 0 1
    outer loop
      vertex 29.2733 27.4051 2.25
      vertex 38 0 2.25
      vertex 29.5374 27.3813 2.25
    endloop
  endfacet
  facet normal 0 0 1
    outer loop
      vertex 29.0125 27.4524 2.25
      vertex 38 0 2.25
      vertex 29.2733 27.4051 2.25
    endloop
  endfacet
  facet normal 0 0 1
    outer loop
      vertex 28.7569 27.523 2.25
      vertex 38 0 2.25
      vertex 29.0125 27.4524 2.25
    endloop
  endfacet
  facet normal 0 0 1
    outer loop
      vertex 28.5086 27.6161 2.25
      vertex 38 0 2.25
      vertex 28.7569 27.523 2.25
    endloop
  endfacet
  facet normal 0 0 1
    outer loop
      vertex 28.2697 27.7312 2.25
      vertex 38 0 2.25
      vertex 28.5086 27.6161 2.25
    endloop
  endfacet
  facet normal 0 0 1
    outer loop
      vertex 0 0 2.25
      vertex 28.2697 27.7312 2.25
      vertex 28.0421 27.8672 2.25
    endloop
  endfacet
  facet normal 0 0 1
    outer loop
      vertex 0 0 2.25
      vertex 28.0421 27.8672 2.25
      vertex 27.8276 28.023 2.25
    endloop
  endfacet
  facet normal 0 0 1
    outer loop
      vertex 0 0 2.25
      vertex 27.8276 28.023 2.25
      vertex 27.6279 28.1975 2.25
    endloop
  endfacet
  facet normal 0 0 1
    outer loop
      vertex 0 0 2.25
      vertex 27.6279 28.1975 2.25
      vertex 27.4447 28.3891 2.25
    endloop
  endfacet
  facet normal 0 0 1
    outer loop
      vertex 0 0 2.25
      vertex 27.4447 28.3891 2.25
      vertex 27.2794 28.5964 2.25
    endloop
  endfacet
  facet normal 0 0 1
    outer loop
      vertex 0 0 2.25
      vertex 27.2794 28.5964 2.25
      vertex 27.1333 28.8177 2.25
    endloop
  endfacet
  facet normal 0 0 1
    outer loop
      vertex 0 0 2.25
      vertex 27.1333 28.8177 2.25
      vertex 27.0076 29.0512 2.25
    endloop
  endfacet
  facet normal 0 0 1
    outer loop
      vertex 0 0 2.25
      vertex 27.0076 29.0512 2.25
      vertex 26.9034 29.295 2.25
    endloop
  endfacet
  facet normal 0 0 1
    outer loop
      vertex 0 0 2.25
      vertex 26.715 30.3333 2.25
      vertex 0 60.6667 2.25
    endloop
  endfacet
  facet normal 0 0 1
    outer loop
      vertex 26.715 30.3333 2.25
      vertex 0 0 2.25
      vertex 26.7269 30.0684 2.25
    endloop
  endfacet
  facet normal 0 0 1
    outer loop
      vertex 26.7269 30.0684 2.25
      vertex 0 0 2.25
      vertex 26.7625 29.8057 2.25
    endloop
  endfacet
  facet normal 0 0 1
    outer loop
      vertex 26.7625 29.8057 2.25
      vertex 0 0 2.25
      vertex 26.8215 29.5472 2.25
    endloop
  endfacet
  facet normal 0 0 1
    outer loop
      vertex 26.8215 29.5472 2.25
      vertex 0 0 2.25
      vertex 26.9034 29.295 2.25
    endloop
  endfacet
  facet normal 0 0 1
    outer loop
      vertex 28.2697 27.7312 2.25
      vertex 0 0 2.25
      vertex 38 0 2.25
    endloop
  endfacet
  facet normal 1 -0 0
    outer loop
      vertex 38 0 2.25
      vertex 38 60.6667 0
      vertex 38 60.6667 2.25
    endloop
  endfacet
  facet normal 1 0 0
    outer loop
      vertex 38 60.6667 0
      vertex 38 0 2.25
      vertex 38 0 0
    endloop
  endfacet
  facet normal 0 1 -0
    outer loop
      vertex 38 60.6667 0
      vertex 0 60.6667 2.25
      vertex 38 60.6667 2.25
    endloop
  endfacet
  facet normal 0 1 0
    outer loop
      vertex 0 60.6667 2.25
      vertex 38 60.6667 0
      vertex 0 60.6667 0
    endloop
  endfacet
  facet normal 0 0 -1
    outer loop
      vertex 38 0 0
      vertex 32.625 30.3333 0
      vertex 38 60.6667 0
    endloop
  endfacet
  facet normal 0 0 -1
    outer loop
      vertex 38 0 0
      vertex 32.6131 30.0684 0
      vertex 32.625 30.3333 0
    endloop
  endfacet
  facet normal 0 0 -1
    outer loop
      vertex 38 0 0
      vertex 32.5775 29.8057 0
      vertex 32.6131 30.0684 0
    endloop
  endfacet
  facet normal 0 0 -1
    outer loop
      vertex 38 0 0
      vertex 32.5185 29.5472 0
      vertex 32.5775 29.8057 0
    endloop
  endfacet
  facet normal 0 0 -1
    outer loop
      vertex 38 0 0
      vertex 32.4366 29.295 0
      vertex 32.5185 29.5472 0
    endloop
  endfacet
  facet normal 0 0 -1
    outer loop
      vertex 38 0 0
      vertex 32.3324 29.0512 0
      vertex 32.4366 29.295 0
    endloop
  endfacet
  facet normal 0 0 -1
    outer loop
      vertex 38 0 0
      vertex 32.2067 28.8177 0
      vertex 32.3324 29.0512 0
    endloop
  endfacet
  facet normal 0 0 -1
    outer loop
      vertex 38 0 0
      vertex 32.0606 28.5964 0
      vertex 32.2067 28.8177 0
    endloop
  endfacet
  facet normal 0 0 -1
    outer loop
      vertex 38 0 0
      vertex 31.8953 28.3891 0
      vertex 32.0606 28.5964 0
    endloop
  endfacet
  facet normal 0 0 -1
    outer loop
      vertex 38 0 0
      vertex 31.7121 28.1975 0
      vertex 31.8953 28.3891 0
    endloop
  endfacet
  facet normal 0 0 -1
    outer loop
      vertex 38 0 0
      vertex 31.5124 28.023 0
      vertex 31.7121 28.1975 0
    endloop
  endfacet
  facet normal 0 0 -1
    outer loop
      vertex 38 0 0
      vertex 31.2979 27.8672 0
      vertex 31.5124 28.023 0
    endloop
  endfacet
  facet normal 0 0 -1
    outer loop
      vertex 38 0 0
      vertex 31.0703 27.7312 0
      vertex 31.2979 27.8672 0
    endloop
  endfacet
  facet normal 0 0 -1
    outer loop
      vertex 38 0 0
      vertex 30.8314 27.6161 0
      vertex 31.0703 27.7312 0
    endloop
  endfacet
  facet normal 0 0 -1
    outer loop
      vertex 38 0 0
      vertex 30.5831 27.523 0
      vertex 30.8314 27.6161 0
    endloop
  endfacet
  facet normal 0 0 -1
    outer loop
      vertex 38 0 0
      vertex 30.3275 27.4524 0
      vertex 30.5831 27.523 0
    endloop
  endfacet
  facet normal 0 0 -1
    outer loop
      vertex 38 0 0
      vertex 30.0667 27.4051 0
      vertex 30.3275 27.4524 0
    endloop
  endfacet
  facet normal 0 0 -1
    outer loop
      vertex 38 0 0
      vertex 29.8026 27.3813 0
      vertex 30.0667 27.4051 0
    endloop
  endfacet
  facet normal 0 0 -1
    outer loop
      vertex 38 0 0
      vertex 29.5374 27.3813 0
      vertex 29.8026 27.3813 0
    endloop
  endfacet
  facet normal 0 0 -1
    outer loop
      vertex 38 0 0
      vertex 29.2733 27.4051 0
      vertex 29.5374 27.3813 0
    endloop
  endfacet
  facet normal 0 0 -1
    outer loop
      vertex 38 0 0
      vertex 29.0125 27.4524 0
      vertex 29.2733 27.4051 0
    endloop
  endfacet
  facet normal 0 0 -1
    outer loop
      vertex 38 0 0
      vertex 28.7569 27.523 0
      vertex 29.0125 27.4524 0
    endloop
  endfacet
  facet normal 0 0 -1
    outer loop
      vertex 38 0 0
      vertex 28.5086 27.6161 0
      vertex 28.7569 27.523 0
    endloop
  endfacet
  facet normal 0 0 -1
    outer loop
      vertex 38 0 0
      vertex 28.2697 27.7312 0
      vertex 28.5086 27.6161 0
    endloop
  endfacet
  facet normal 0 0 -1
    outer loop
      vertex 0 0 0
      vertex 28.2697 27.7312 0
      vertex 38 0 0
    endloop
  endfacet
  facet normal -0 0 -1
    outer loop
      vertex 28.2697 27.7312 0
      vertex 0 0 0
      vertex 28.0421 27.8672 0
    endloop
  endfacet
  facet normal -0 0 -1
    outer loop
      vertex 28.0421 27.8672 0
      vertex 0 0 0
      vertex 27.8276 28.023 0
    endloop
  endfacet
  facet normal -0 0 -1
    outer loop
      vertex 27.8276 28.023 0
      vertex 0 0 0
      vertex 27.6279 28.1975 0
    endloop
  endfacet
  facet normal -0 0 -1
    outer loop
      vertex 27.6279 28.1975 0
      vertex 0 0 0
      vertex 27.4447 28.3891 0
    endloop
  endfacet
  facet normal -0 0 -1
    outer loop
      vertex 27.4447 28.3891 0
      vertex 0 0 0
      vertex 27.2794 28.5964 0
    endloop
  endfacet
  facet normal -0 0 -1
    outer loop
      vertex 27.2794 28.5964 0
      vertex 0 0 0
      vertex 27.1333 28.8177 0
    endloop
  endfacet
  facet normal -0 0 -1
    outer loop
      vertex 27.1333 28.8177 0
      vertex 0 0 0
      vertex 27.0076 29.0512 0
    endloop
  endfacet
  facet normal -0 0 -1
    outer loop
      vertex 26.7269 30.0684 0
      vertex 0 0 0
      vertex 26.715 30.3333 0
    endloop
  endfacet
  facet normal -0 0 -1
    outer loop
      vertex 26.7625 29.8057 0
      vertex 0 0 0
      vertex 26.7269 30.0684 0
    endloop
  endfacet
  facet normal -0 0 -1
    outer loop
      vertex 26.8215 29.5472 0
      vertex 0 0 0
      vertex 26.7625 29.8057 0
    endloop
  endfacet
  facet normal -0 0 -1
    outer loop
      vertex 26.9034 29.295 0
      vertex 0 0 0
      vertex 26.8215 29.5472 0
    endloop
  endfacet
  facet normal -0 0 -1
    outer loop
      vertex 27.0076 29.0512 0
      vertex 0 0 0
      vertex 26.9034 29.295 0
    endloop
  endfacet
  facet normal 0 0 -1
    outer loop
      vertex 32.6131 30.5982 0
      vertex 38 60.6667 0
      vertex 32.625 30.3333 0
    endloop
  endfacet
  facet normal 0 0 -1
    outer loop
      vertex 32.5775 30.861 0
      vertex 38 60.6667 0
      vertex 32.6131 30.5982 0
    endloop
  endfacet
  facet normal 0 0 -1
    outer loop
      vertex 32.5185 31.1195 0
      vertex 38 60.6667 0
      vertex 32.5775 30.861 0
    endloop
  endfacet
  facet normal 0 0 -1
    outer loop
      vertex 32.4366 31.3716 0
      vertex 38 60.6667 0
      vertex 32.5185 31.1195 0
    endloop
  endfacet
  facet normal 0 0 -1
    outer loop
      vertex 32.3324 31.6155 0
      vertex 38 60.6667 0
      vertex 32.4366 31.3716 0
    endloop
  endfacet
  facet normal 0 0 -1
    outer loop
      vertex 32.2067 31.8489 0
      vertex 38 60.6667 0
      vertex 32.3324 31.6155 0
    endloop
  endfacet
  facet normal 0 0 -1
    outer loop
      vertex 32.0606 32.0702 0
      vertex 38 60.6667 0
      vertex 32.2067 31.8489 0
    endloop
  endfacet
  facet normal 0 0 -1
    outer loop
      vertex 31.8953 32.2775 0
      vertex 38 60.6667 0
      vertex 32.0606 32.0702 0
    endloop
  endfacet
  facet normal 0 0 -1
    outer loop
      vertex 31.7121 32.4692 0
      vertex 38 60.6667 0
      vertex 31.8953 32.2775 0
    endloop
  endfacet
  facet normal 0 0 -1
    outer loop
      vertex 31.5124 32.6436 0
      vertex 38 60.6667 0
      vertex 31.7121 32.4692 0
    endloop
  endfacet
  facet normal 0 0 -1
    outer loop
      vertex 31.2979 32.7995 0
      vertex 38 60.6667 0
      vertex 31.5124 32.6436 0
    endloop
  endfacet
  facet normal 0 0 -1
    outer loop
      vertex 31.0703 32.9355 0
      vertex 38 60.6667 0
      vertex 31.2979 32.7995 0
    endloop
  endfacet
  facet normal 0 0 -1
    outer loop
      vertex 30.8314 33.0505 0
      vertex 38 60.6667 0
      vertex 31.0703 32.9355 0
    endloop
  endfacet
  facet normal 0 0 -1
    outer loop
      vertex 30.5831 33.1437 0
      vertex 38 60.6667 0
      vertex 30.8314 33.0505 0
    endloop
  endfacet
  facet normal 0 0 -1
    outer loop
      vertex 30.3275 33.2142 0
      vertex 38 60.6667 0
      vertex 30.5831 33.1437 0
    endloop
  endfacet
  facet normal 0 0 -1
    outer loop
      vertex 30.0667 33.2616 0
      vertex 38 60.6667 0
      vertex 30.3275 33.2142 0
    endloop
  endfacet
  facet normal 0 0 -1
    outer loop
      vertex 29.8026 33.2854 0
      vertex 38 60.6667 0
      vertex 30.0667 33.2616 0
    endloop
  endfacet
  facet normal 0 0 -1
    outer loop
      vertex 29.5374 33.2854 0
      vertex 38 60.6667 0
      vertex 29.8026 33.2854 0
    endloop
  endfacet
  facet normal 0 0 -1
    outer loop
      vertex 29.2733 33.2616 0
      vertex 38 60.6667 0
      vertex 29.5374 33.2854 0
    endloop
  endfacet
  facet normal 0 0 -1
    outer loop
      vertex 29.0125 33.2142 0
      vertex 38 60.6667 0
      vertex 29.2733 33.2616 0
    endloop
  endfacet
  facet normal 0 0 -1
    outer loop
      vertex 28.7569 33.1437 0
      vertex 38 60.6667 0
      vertex 29.0125 33.2142 0
    endloop
  endfacet
  facet normal 0 0 -1
    outer loop
      vertex 28.5086 33.0505 0
      vertex 38 60.6667 0
      vertex 28.7569 33.1437 0
    endloop
  endfacet
  facet normal 0 0 -1
    outer loop
      vertex 28.2697 32.9355 0
      vertex 38 60.6667 0
      vertex 28.5086 33.0505 0
    endloop
  endfacet
  facet normal 0 0 -1
    outer loop
      vertex 0 60.6667 0
      vertex 28.2697 32.9355 0
      vertex 28.0421 32.7995 0
    endloop
  endfacet
  facet normal 0 0 -1
    outer loop
      vertex 0 60.6667 0
      vertex 28.0421 32.7995 0
      vertex 27.8276 32.6436 0
    endloop
  endfacet
  facet normal 0 0 -1
    outer loop
      vertex 0 60.6667 0
      vertex 27.8276 32.6436 0
      vertex 27.6279 32.4692 0
    endloop
  endfacet
  facet normal 0 0 -1
    outer loop
      vertex 0 60.6667 0
      vertex 27.6279 32.4692 0
      vertex 27.4447 32.2775 0
    endloop
  endfacet
  facet normal 0 0 -1
    outer loop
      vertex 0 60.6667 0
      vertex 27.4447 32.2775 0
      vertex 27.2794 32.0702 0
    endloop
  endfacet
  facet normal 0 0 -1
    outer loop
      vertex 0 60.6667 0
      vertex 27.2794 32.0702 0
      vertex 27.1333 31.8489 0
    endloop
  endfacet
  facet normal 0 0 -1
    outer loop
      vertex 0 60.6667 0
      vertex 27.1333 31.8489 0
      vertex 27.0076 31.6155 0
    endloop
  endfacet
  facet normal 0 0 -1
    outer loop
      vertex 0 60.6667 0
      vertex 27.0076 31.6155 0
      vertex 26.9034 31.3716 0
    endloop
  endfacet
  facet normal 0 0 -1
    outer loop
      vertex 0 60.6667 0
      vertex 26.715 30.3333 0
      vertex 0 0 0
    endloop
  endfacet
  facet normal 0 0 -1
    outer loop
      vertex 26.715 30.3333 0
      vertex 0 60.6667 0
      vertex 26.7269 30.5982 0
    endloop
  endfacet
  facet normal 0 0 -1
    outer loop
      vertex 26.7269 30.5982 0
      vertex 0 60.6667 0
      vertex 26.7625 30.861 0
    endloop
  endfacet
  facet normal 0 0 -1
    outer loop
      vertex 26.7625 30.861 0
      vertex 0 60.6667 0
      vertex 26.8215 31.1195 0
    endloop
  endfacet
  facet normal 0 0 -1
    outer loop
      vertex 26.8215 31.1195 0
      vertex 0 60.6667 0
      vertex 26.9034 31.3716 0
    endloop
  endfacet
  facet normal 0 0 -1
    outer loop
      vertex 28.2697 32.9355 0
      vertex 0 60.6667 0
      vertex 38 60.6667 0
    endloop
  endfacet
  facet normal 0 -1 0
    outer loop
      vertex 0 0 0
      vertex 38 0 2.25
      vertex 0 0 2.25
    endloop
  endfacet
  facet normal 0 -1 -0
    outer loop
      vertex 38 0 2.25
      vertex 0 0 0
      vertex 38 0 0
    endloop
  endfacet
  facet normal -0.998993 -0.0448774 0
    outer loop
      vertex 32.625 30.3333 0
      vertex 32.6131 30.5982 2.25
      vertex 32.6131 30.5982 0
    endloop
  endfacet
  facet normal -0.998993 -0.0448774 0
    outer loop
      vertex 32.6131 30.5982 2.25
      vertex 32.625 30.3333 0
      vertex 32.625 30.3333 2.25
    endloop
  endfacet
  facet normal 0.998993 -0.0448774 0
    outer loop
      vertex 26.715 30.3333 2.25
      vertex 26.7269 30.5982 0
      vertex 26.7269 30.5982 2.25
    endloop
  endfacet
  facet normal 0.998993 -0.0448774 0
    outer loop
      vertex 26.7269 30.5982 0
      vertex 26.715 30.3333 2.25
      vertex 26.715 30.3333 0
    endloop
  endfacet
  facet normal 0 -1 0
    outer loop
      vertex 29.5374 33.2854 0
      vertex 29.8026 33.2854 2.25
      vertex 29.5374 33.2854 2.25
    endloop
  endfacet
  facet normal 0 -1 -0
    outer loop
      vertex 29.8026 33.2854 2.25
      vertex 29.5374 33.2854 0
      vertex 29.8026 33.2854 0
    endloop
  endfacet
  facet normal 0 1 -0
    outer loop
      vertex 29.8026 27.3813 0
      vertex 29.5374 27.3813 2.25
      vertex 29.8026 27.3813 2.25
    endloop
  endfacet
  facet normal 0 1 0
    outer loop
      vertex 29.5374 27.3813 2.25
      vertex 29.8026 27.3813 0
      vertex 29.5374 27.3813 0
    endloop
  endfacet
  facet normal -0.657783 -0.753207 0
    outer loop
      vertex 31.5124 32.6436 0
      vertex 31.7121 32.4692 2.25
      vertex 31.5124 32.6436 2.25
    endloop
  endfacet
  facet normal -0.657783 -0.753207 -0
    outer loop
      vertex 31.7121 32.4692 2.25
      vertex 31.5124 32.6436 0
      vertex 31.7121 32.4692 0
    endloop
  endfacet
  facet normal 0.722953 -0.690897 0
    outer loop
      vertex 27.4447 32.2775 2.25
      vertex 27.6279 32.4692 0
      vertex 27.6279 32.4692 2.25
    endloop
  endfacet
  facet normal 0.722953 -0.690897 0
    outer loop
      vertex 27.6279 32.4692 0
      vertex 27.4447 32.2775 2.25
      vertex 27.4447 32.2775 0
    endloop
  endfacet
  facet normal 0.433736 -0.90104 0
    outer loop
      vertex 28.2697 32.9355 0
      vertex 28.5086 33.0505 2.25
      vertex 28.2697 32.9355 2.25
    endloop
  endfacet
  facet normal 0.433736 -0.90104 0
    outer loop
      vertex 28.5086 33.0505 2.25
      vertex 28.2697 32.9355 0
      vertex 28.5086 33.0505 0
    endloop
  endfacet
  facet normal -0.880435 -0.474167 0
    outer loop
      vertex 32.3324 31.6155 0
      vertex 32.2067 31.8489 2.25
      vertex 32.2067 31.8489 0
    endloop
  endfacet
  facet normal -0.880435 -0.474167 0
    outer loop
      vertex 32.2067 31.8489 2.25
      vertex 32.3324 31.6155 0
      vertex 32.3324 31.6155 2.25
    endloop
  endfacet
  facet normal -0.351413 -0.936221 0
    outer loop
      vertex 30.5831 33.1437 0
      vertex 30.8314 33.0505 2.25
      vertex 30.5831 33.1437 2.25
    endloop
  endfacet
  facet normal -0.351413 -0.936221 -0
    outer loop
      vertex 30.8314 33.0505 2.25
      vertex 30.5831 33.1437 0
      vertex 30.8314 33.0505 0
    endloop
  endfacet
  facet normal -0.512942 -0.858423 0
    outer loop
      vertex 31.0703 32.9355 0
      vertex 31.2979 32.7995 2.25
      vertex 31.0703 32.9355 2.25
    endloop
  endfacet
  facet normal -0.512942 -0.858423 -0
    outer loop
      vertex 31.2979 32.7995 2.25
      vertex 31.0703 32.9355 0
      vertex 31.2979 32.7995 0
    endloop
  endfacet
  facet normal 0.919593 -0.392872 0
    outer loop
      vertex 26.9034 31.3716 2.25
      vertex 27.0076 31.6155 0
      vertex 27.0076 31.6155 2.25
    endloop
  endfacet
  facet normal 0.919593 -0.392872 0
    outer loop
      vertex 27.0076 31.6155 0
      vertex 26.9034 31.3716 2.25
      vertex 26.9034 31.3716 0
    endloop
  endfacet
  facet normal 0.178819 -0.983882 0
    outer loop
      vertex 29.0125 33.2142 0
      vertex 29.2733 33.2616 2.25
      vertex 29.0125 33.2142 2.25
    endloop
  endfacet
  facet normal 0.178819 -0.983882 0
    outer loop
      vertex 29.2733 33.2616 2.25
      vertex 29.0125 33.2142 0
      vertex 29.2733 33.2616 0
    endloop
  endfacet
  facet normal -0.0897537 0.995964 0
    outer loop
      vertex 30.0667 27.4051 0
      vertex 29.8026 27.3813 2.25
      vertex 30.0667 27.4051 2.25
    endloop
  endfacet
  facet normal -0.0897537 0.995964 0
    outer loop
      vertex 29.8026 27.3813 2.25
      vertex 30.0667 27.4051 0
      vertex 29.8026 27.3813 0
    endloop
  endfacet
  facet normal -0.95107 -0.308975 0
    outer loop
      vertex 32.5185 31.1195 0
      vertex 32.4366 31.3716 2.25
      vertex 32.4366 31.3716 0
    endloop
  endfacet
  facet normal -0.95107 -0.308975 0
    outer loop
      vertex 32.4366 31.3716 2.25
      vertex 32.5185 31.1195 0
      vertex 32.5185 31.1195 2.25
    endloop
  endfacet
  facet normal -0.990949 -0.134238 0
    outer loop
      vertex 32.6131 30.5982 0
      vertex 32.5775 30.861 2.25
      vertex 32.5775 30.861 0
    endloop
  endfacet
  facet normal -0.990949 -0.134238 0
    outer loop
      vertex 32.5775 30.861 2.25
      vertex 32.6131 30.5982 0
      vertex 32.6131 30.5982 2.25
    endloop
  endfacet
  facet normal -0.919593 -0.392872 0
    outer loop
      vertex 32.4366 31.3716 0
      vertex 32.3324 31.6155 2.25
      vertex 32.3324 31.6155 0
    endloop
  endfacet
  facet normal -0.919593 -0.392872 0
    outer loop
      vertex 32.3324 31.6155 2.25
      vertex 32.4366 31.3716 0
      vertex 32.4366 31.3716 2.25
    endloop
  endfacet
  facet normal -0.781861 -0.623452 0
    outer loop
      vertex 32.0606 32.0702 0
      vertex 31.8953 32.2775 2.25
      vertex 31.8953 32.2775 0
    endloop
  endfacet
  facet normal -0.781861 -0.623452 0
    outer loop
      vertex 31.8953 32.2775 2.25
      vertex 32.0606 32.0702 0
      vertex 32.0606 32.0702 2.25
    endloop
  endfacet
  facet normal -0.722953 -0.690897 0
    outer loop
      vertex 31.8953 32.2775 0
      vertex 31.7121 32.4692 2.25
      vertex 31.7121 32.4692 0
    endloop
  endfacet
  facet normal -0.722953 -0.690897 0
    outer loop
      vertex 31.7121 32.4692 2.25
      vertex 31.8953 32.2775 0
      vertex 31.8953 32.2775 2.25
    endloop
  endfacet
  facet normal -0.834537 -0.550953 0
    outer loop
      vertex 32.2067 31.8489 0
      vertex 32.0606 32.0702 2.25
      vertex 32.0606 32.0702 0
    endloop
  endfacet
  facet normal -0.834537 -0.550953 0
    outer loop
      vertex 32.0606 32.0702 2.25
      vertex 32.2067 31.8489 0
      vertex 32.2067 31.8489 2.25
    endloop
  endfacet
  facet normal -0.178819 -0.983882 0
    outer loop
      vertex 30.0667 33.2616 0
      vertex 30.3275 33.2142 2.25
      vertex 30.0667 33.2616 2.25
    endloop
  endfacet
  facet normal -0.178819 -0.983882 -0
    outer loop
      vertex 30.3275 33.2142 2.25
      vertex 30.0667 33.2616 0
      vertex 30.3275 33.2142 0
    endloop
  endfacet
  facet normal -0.265893 -0.964003 0
    outer loop
      vertex 30.3275 33.2142 0
      vertex 30.5831 33.1437 2.25
      vertex 30.3275 33.2142 2.25
    endloop
  endfacet
  facet normal -0.265893 -0.964003 -0
    outer loop
      vertex 30.5831 33.1437 2.25
      vertex 30.3275 33.2142 0
      vertex 30.5831 33.1437 0
    endloop
  endfacet
  facet normal -0.0897537 -0.995964 0
    outer loop
      vertex 29.8026 33.2854 0
      vertex 30.0667 33.2616 2.25
      vertex 29.8026 33.2854 2.25
    endloop
  endfacet
  facet normal -0.0897537 -0.995964 -0
    outer loop
      vertex 30.0667 33.2616 2.25
      vertex 29.8026 33.2854 0
      vertex 30.0667 33.2616 0
    endloop
  endfacet
  facet normal -0.433736 -0.90104 0
    outer loop
      vertex 30.8314 33.0505 0
      vertex 31.0703 32.9355 2.25
      vertex 30.8314 33.0505 2.25
    endloop
  endfacet
  facet normal -0.433736 -0.90104 -0
    outer loop
      vertex 31.0703 32.9355 2.25
      vertex 30.8314 33.0505 0
      vertex 31.0703 32.9355 0
    endloop
  endfacet
  facet normal -0.587925 -0.808915 0
    outer loop
      vertex 31.2979 32.7995 0
      vertex 31.5124 32.6436 2.25
      vertex 31.2979 32.7995 2.25
    endloop
  endfacet
  facet normal -0.587925 -0.808915 -0
    outer loop
      vertex 31.5124 32.6436 2.25
      vertex 31.2979 32.7995 0
      vertex 31.5124 32.6436 0
    endloop
  endfacet
  facet normal 0.974929 -0.222518 0
    outer loop
      vertex 26.7625 30.861 2.25
      vertex 26.8215 31.1195 0
      vertex 26.8215 31.1195 2.25
    endloop
  endfacet
  facet normal 0.974929 -0.222518 0
    outer loop
      vertex 26.8215 31.1195 0
      vertex 26.7625 30.861 2.25
      vertex 26.7625 30.861 0
    endloop
  endfacet
  facet normal 0.834537 -0.550953 0
    outer loop
      vertex 27.1333 31.8489 2.25
      vertex 27.2794 32.0702 0
      vertex 27.2794 32.0702 2.25
    endloop
  endfacet
  facet normal 0.834537 -0.550953 0
    outer loop
      vertex 27.2794 32.0702 0
      vertex 27.1333 31.8489 2.25
      vertex 27.1333 31.8489 0
    endloop
  endfacet
  facet normal 0.781861 -0.623452 0
    outer loop
      vertex 27.2794 32.0702 2.25
      vertex 27.4447 32.2775 0
      vertex 27.4447 32.2775 2.25
    endloop
  endfacet
  facet normal 0.781861 -0.623452 0
    outer loop
      vertex 27.4447 32.2775 0
      vertex 27.2794 32.0702 2.25
      vertex 27.2794 32.0702 0
    endloop
  endfacet
  facet normal 0.880435 -0.474167 0
    outer loop
      vertex 27.0076 31.6155 2.25
      vertex 27.1333 31.8489 0
      vertex 27.1333 31.8489 2.25
    endloop
  endfacet
  facet normal 0.880435 -0.474167 0
    outer loop
      vertex 27.1333 31.8489 0
      vertex 27.0076 31.6155 2.25
      vertex 27.0076 31.6155 0
    endloop
  endfacet
  facet normal 0.95107 -0.308975 0
    outer loop
      vertex 26.8215 31.1195 2.25
      vertex 26.9034 31.3716 0
      vertex 26.9034 31.3716 2.25
    endloop
  endfacet
  facet normal 0.95107 -0.308975 0
    outer loop
      vertex 26.9034 31.3716 0
      vertex 26.8215 31.1195 2.25
      vertex 26.8215 31.1195 0
    endloop
  endfacet
  facet normal 0.990949 -0.134238 0
    outer loop
      vertex 26.7269 30.5982 2.25
      vertex 26.7625 30.861 0
      vertex 26.7625 30.861 2.25
    endloop
  endfacet
  facet normal 0.990949 -0.134238 0
    outer loop
      vertex 26.7625 30.861 0
      vertex 26.7269 30.5982 2.25
      vertex 26.7269 30.5982 0
    endloop
  endfacet
  facet normal 0.587925 -0.808915 0
    outer loop
      vertex 27.8276 32.6436 0
      vertex 28.0421 32.7995 2.25
      vertex 27.8276 32.6436 2.25
    endloop
  endfacet
  facet normal 0.587925 -0.808915 0
    outer loop
      vertex 28.0421 32.7995 2.25
      vertex 27.8276 32.6436 0
      vertex 28.0421 32.7995 0
    endloop
  endfacet
  facet normal 0.512942 -0.858423 0
    outer loop
      vertex 28.0421 32.7995 0
      vertex 28.2697 32.9355 2.25
      vertex 28.0421 32.7995 2.25
    endloop
  endfacet
  facet normal 0.512942 -0.858423 0
    outer loop
      vertex 28.2697 32.9355 2.25
      vertex 28.0421 32.7995 0
      vertex 28.2697 32.9355 0
    endloop
  endfacet
  facet normal 0.657783 -0.753207 0
    outer loop
      vertex 27.6279 32.4692 0
      vertex 27.8276 32.6436 2.25
      vertex 27.6279 32.4692 2.25
    endloop
  endfacet
  facet normal 0.657783 -0.753207 0
    outer loop
      vertex 27.8276 32.6436 2.25
      vertex 27.6279 32.4692 0
      vertex 27.8276 32.6436 0
    endloop
  endfacet
  facet normal 0.265893 -0.964003 0
    outer loop
      vertex 28.7569 33.1437 0
      vertex 29.0125 33.2142 2.25
      vertex 28.7569 33.1437 2.25
    endloop
  endfacet
  facet normal 0.265893 -0.964003 0
    outer loop
      vertex 29.0125 33.2142 2.25
      vertex 28.7569 33.1437 0
      vertex 29.0125 33.2142 0
    endloop
  endfacet
  facet normal 0.0897537 -0.995964 0
    outer loop
      vertex 29.2733 33.2616 0
      vertex 29.5374 33.2854 2.25
      vertex 29.2733 33.2616 2.25
    endloop
  endfacet
  facet normal 0.0897537 -0.995964 0
    outer loop
      vertex 29.5374 33.2854 2.25
      vertex 29.2733 33.2616 0
      vertex 29.5374 33.2854 0
    endloop
  endfacet
  facet normal -0.990942 0.134288 0
    outer loop
      vertex 32.5775 29.8057 0
      vertex 32.6131 30.0684 2.25
      vertex 32.6131 30.0684 0
    endloop
  endfacet
  facet normal -0.990942 0.134288 0
    outer loop
      vertex 32.6131 30.0684 2.25
      vertex 32.5775 29.8057 0
      vertex 32.5775 29.8057 2.25
    endloop
  endfacet
  facet normal -0.722773 0.691086 0
    outer loop
      vertex 31.7121 28.1975 0
      vertex 31.8953 28.3891 2.25
      vertex 31.8953 28.3891 0
    endloop
  endfacet
  facet normal -0.722773 0.691086 0
    outer loop
      vertex 31.8953 28.3891 2.25
      vertex 31.7121 28.1975 0
      vertex 31.7121 28.1975 2.25
    endloop
  endfacet
  facet normal -0.974929 -0.222518 0
    outer loop
      vertex 32.5775 30.861 0
      vertex 32.5185 31.1195 2.25
      vertex 32.5185 31.1195 0
    endloop
  endfacet
  facet normal -0.974929 -0.222518 0
    outer loop
      vertex 32.5185 31.1195 2.25
      vertex 32.5775 30.861 0
      vertex 32.5775 30.861 2.25
    endloop
  endfacet
  facet normal 0.351413 -0.936221 0
    outer loop
      vertex 28.5086 33.0505 0
      vertex 28.7569 33.1437 2.25
      vertex 28.5086 33.0505 2.25
    endloop
  endfacet
  facet normal 0.351413 -0.936221 0
    outer loop
      vertex 28.7569 33.1437 2.25
      vertex 28.5086 33.0505 0
      vertex 28.7569 33.1437 0
    endloop
  endfacet
  facet normal -0.998993 0.0448774 0
    outer loop
      vertex 32.6131 30.0684 0
      vertex 32.625 30.3333 2.25
      vertex 32.625 30.3333 0
    endloop
  endfacet
  facet normal -0.998993 0.0448774 0
    outer loop
      vertex 32.625 30.3333 2.25
      vertex 32.6131 30.0684 0
      vertex 32.6131 30.0684 2.25
    endloop
  endfacet
  facet normal -0.951106 0.308864 0
    outer loop
      vertex 32.4366 29.295 0
      vertex 32.5185 29.5472 2.25
      vertex 32.5185 29.5472 0
    endloop
  endfacet
  facet normal -0.951106 0.308864 0
    outer loop
      vertex 32.5185 29.5472 2.25
      vertex 32.4366 29.295 0
      vertex 32.4366 29.295 2.25
    endloop
  endfacet
  facet normal -0.434042 0.900892 0
    outer loop
      vertex 31.0703 27.7312 0
      vertex 30.8314 27.6161 2.25
      vertex 31.0703 27.7312 2.25
    endloop
  endfacet
  facet normal -0.434042 0.900892 0
    outer loop
      vertex 30.8314 27.6161 2.25
      vertex 31.0703 27.7312 0
      vertex 30.8314 27.6161 0
    endloop
  endfacet
  facet normal -0.587678 0.809095 0
    outer loop
      vertex 31.5124 28.023 0
      vertex 31.2979 27.8672 2.25
      vertex 31.5124 28.023 2.25
    endloop
  endfacet
  facet normal -0.587678 0.809095 0
    outer loop
      vertex 31.2979 27.8672 2.25
      vertex 31.5124 28.023 0
      vertex 31.2979 27.8672 0
    endloop
  endfacet
  facet normal -0.88052 0.47401 0
    outer loop
      vertex 32.2067 28.8177 0
      vertex 32.3324 29.0512 2.25
      vertex 32.3324 29.0512 0
    endloop
  endfacet
  facet normal -0.88052 0.47401 0
    outer loop
      vertex 32.3324 29.0512 2.25
      vertex 32.2067 28.8177 0
      vertex 32.2067 28.8177 2.25
    endloop
  endfacet
  facet normal -0.781861 0.623452 0
    outer loop
      vertex 31.8953 28.3891 0
      vertex 32.0606 28.5964 2.25
      vertex 32.0606 28.5964 0
    endloop
  endfacet
  facet normal -0.781861 0.623452 0
    outer loop
      vertex 32.0606 28.5964 2.25
      vertex 31.8953 28.3891 0
      vertex 31.8953 28.3891 2.25
    endloop
  endfacet
  facet normal -0.178454 0.983948 0
    outer loop
      vertex 30.3275 27.4524 0
      vertex 30.0667 27.4051 2.25
      vertex 30.3275 27.4524 2.25
    endloop
  endfacet
  facet normal -0.178454 0.983948 0
    outer loop
      vertex 30.0667 27.4051 2.25
      vertex 30.3275 27.4524 0
      vertex 30.0667 27.4051 0
    endloop
  endfacet
  facet normal -0.351082 0.936345 0
    outer loop
      vertex 30.8314 27.6161 0
      vertex 30.5831 27.523 2.25
      vertex 30.8314 27.6161 2.25
    endloop
  endfacet
  facet normal -0.351082 0.936345 0
    outer loop
      vertex 30.5831 27.523 2.25
      vertex 30.8314 27.6161 0
      vertex 30.5831 27.523 0
    endloop
  endfacet
  facet normal -0.266243 0.963906 0
    outer loop
      vertex 30.5831 27.523 0
      vertex 30.3275 27.4524 2.25
      vertex 30.5831 27.523 2.25
    endloop
  endfacet
  facet normal -0.266243 0.963906 0
    outer loop
      vertex 30.3275 27.4524 2.25
      vertex 30.5831 27.523 0
      vertex 30.3275 27.4524 0
    endloop
  endfacet
  facet normal -0.974929 0.222518 0
    outer loop
      vertex 32.5185 29.5472 0
      vertex 32.5775 29.8057 2.25
      vertex 32.5775 29.8057 0
    endloop
  endfacet
  facet normal -0.974929 0.222518 0
    outer loop
      vertex 32.5775 29.8057 2.25
      vertex 32.5185 29.5472 0
      vertex 32.5185 29.5472 2.25
    endloop
  endfacet
  facet normal -0.657997 0.75302 0
    outer loop
      vertex 31.7121 28.1975 0
      vertex 31.5124 28.023 2.25
      vertex 31.7121 28.1975 2.25
    endloop
  endfacet
  facet normal -0.657997 0.75302 0
    outer loop
      vertex 31.5124 28.023 2.25
      vertex 31.7121 28.1975 0
      vertex 31.5124 28.023 0
    endloop
  endfacet
  facet normal -0.919535 0.393009 0
    outer loop
      vertex 32.3324 29.0512 0
      vertex 32.4366 29.295 2.25
      vertex 32.4366 29.295 0
    endloop
  endfacet
  facet normal -0.919535 0.393009 0
    outer loop
      vertex 32.4366 29.295 2.25
      vertex 32.3324 29.0512 0
      vertex 32.3324 29.0512 2.25
    endloop
  endfacet
  facet normal -0.834537 0.550953 0
    outer loop
      vertex 32.0606 28.5964 0
      vertex 32.2067 28.8177 2.25
      vertex 32.2067 28.8177 0
    endloop
  endfacet
  facet normal -0.834537 0.550953 0
    outer loop
      vertex 32.2067 28.8177 2.25
      vertex 32.0606 28.5964 0
      vertex 32.0606 28.5964 2.25
    endloop
  endfacet
  facet normal 0.0897537 0.995964 -0
    outer loop
      vertex 29.5374 27.3813 0
      vertex 29.2733 27.4051 2.25
      vertex 29.5374 27.3813 2.25
    endloop
  endfacet
  facet normal 0.0897537 0.995964 0
    outer loop
      vertex 29.2733 27.4051 2.25
      vertex 29.5374 27.3813 0
      vertex 29.2733 27.4051 0
    endloop
  endfacet
  facet normal 0.351082 0.936345 -0
    outer loop
      vertex 28.7569 27.523 0
      vertex 28.5086 27.6161 2.25
      vertex 28.7569 27.523 2.25
    endloop
  endfacet
  facet normal 0.351082 0.936345 0
    outer loop
      vertex 28.5086 27.6161 2.25
      vertex 28.7569 27.523 0
      vertex 28.5086 27.6161 0
    endloop
  endfacet
  facet normal 0.178454 0.983948 -0
    outer loop
      vertex 29.2733 27.4051 0
      vertex 29.0125 27.4524 2.25
      vertex 29.2733 27.4051 2.25
    endloop
  endfacet
  facet normal 0.178454 0.983948 0
    outer loop
      vertex 29.0125 27.4524 2.25
      vertex 29.2733 27.4051 0
      vertex 29.0125 27.4524 0
    endloop
  endfacet
  facet normal 0.722773 0.691086 0
    outer loop
      vertex 27.6279 28.1975 2.25
      vertex 27.4447 28.3891 0
      vertex 27.4447 28.3891 2.25
    endloop
  endfacet
  facet normal 0.722773 0.691086 0
    outer loop
      vertex 27.4447 28.3891 0
      vertex 27.6279 28.1975 2.25
      vertex 27.6279 28.1975 0
    endloop
  endfacet
  facet normal 0.919535 0.393009 0
    outer loop
      vertex 27.0076 29.0512 2.25
      vertex 26.9034 29.295 0
      vertex 26.9034 29.295 2.25
    endloop
  endfacet
  facet normal 0.919535 0.393009 0
    outer loop
      vertex 26.9034 29.295 0
      vertex 27.0076 29.0512 2.25
      vertex 27.0076 29.0512 0
    endloop
  endfacet
  facet normal 0.990942 0.134288 0
    outer loop
      vertex 26.7625 29.8057 2.25
      vertex 26.7269 30.0684 0
      vertex 26.7269 30.0684 2.25
    endloop
  endfacet
  facet normal 0.990942 0.134288 0
    outer loop
      vertex 26.7269 30.0684 0
      vertex 26.7625 29.8057 2.25
      vertex 26.7625 29.8057 0
    endloop
  endfacet
  facet normal 0.998993 0.0448774 0
    outer loop
      vertex 26.7269 30.0684 2.25
      vertex 26.715 30.3333 0
      vertex 26.715 30.3333 2.25
    endloop
  endfacet
  facet normal 0.998993 0.0448774 0
    outer loop
      vertex 26.715 30.3333 0
      vertex 26.7269 30.0684 2.25
      vertex 26.7269 30.0684 0
    endloop
  endfacet
  facet normal -0.512942 0.858423 0
    outer loop
      vertex 31.2979 27.8672 0
      vertex 31.0703 27.7312 2.25
      vertex 31.2979 27.8672 2.25
    endloop
  endfacet
  facet normal -0.512942 0.858423 0
    outer loop
      vertex 31.0703 27.7312 2.25
      vertex 31.2979 27.8672 0
      vertex 31.0703 27.7312 0
    endloop
  endfacet
  facet normal 0.512942 0.858423 -0
    outer loop
      vertex 28.2697 27.7312 0
      vertex 28.0421 27.8672 2.25
      vertex 28.2697 27.7312 2.25
    endloop
  endfacet
  facet normal 0.512942 0.858423 0
    outer loop
      vertex 28.0421 27.8672 2.25
      vertex 28.2697 27.7312 0
      vertex 28.0421 27.8672 0
    endloop
  endfacet
  facet normal 0.434042 0.900892 -0
    outer loop
      vertex 28.5086 27.6161 0
      vertex 28.2697 27.7312 2.25
      vertex 28.5086 27.6161 2.25
    endloop
  endfacet
  facet normal 0.434042 0.900892 0
    outer loop
      vertex 28.2697 27.7312 2.25
      vertex 28.5086 27.6161 0
      vertex 28.2697 27.7312 0
    endloop
  endfacet
  facet normal 0.266243 0.963906 -0
    outer loop
      vertex 29.0125 27.4524 0
      vertex 28.7569 27.523 2.25
      vertex 29.0125 27.4524 2.25
    endloop
  endfacet
  facet normal 0.266243 0.963906 0
    outer loop
      vertex 28.7569 27.523 2.25
      vertex 29.0125 27.4524 0
      vertex 28.7569 27.523 0
    endloop
  endfacet
  facet normal 0.88052 0.47401 0
    outer loop
      vertex 27.1333 28.8177 2.25
      vertex 27.0076 29.0512 0
      vertex 27.0076 29.0512 2.25
    endloop
  endfacet
  facet normal 0.88052 0.47401 0
    outer loop
      vertex 27.0076 29.0512 0
      vertex 27.1333 28.8177 2.25
      vertex 27.1333 28.8177 0
    endloop
  endfacet
  facet normal 0.834537 0.550953 0
    outer loop
      vertex 27.2794 28.5964 2.25
      vertex 27.1333 28.8177 0
      vertex 27.1333 28.8177 2.25
    endloop
  endfacet
  facet normal 0.834537 0.550953 0
    outer loop
      vertex 27.1333 28.8177 0
      vertex 27.2794 28.5964 2.25
      vertex 27.2794 28.5964 0
    endloop
  endfacet
  facet normal 0.781861 0.623452 0
    outer loop
      vertex 27.4447 28.3891 2.25
      vertex 27.2794 28.5964 0
      vertex 27.2794 28.5964 2.25
    endloop
  endfacet
  facet normal 0.781861 0.623452 0
    outer loop
      vertex 27.2794 28.5964 0
      vertex 27.4447 28.3891 2.25
      vertex 27.4447 28.3891 0
    endloop
  endfacet
  facet normal 0.951106 0.308864 0
    outer loop
      vertex 26.9034 29.295 2.25
      vertex 26.8215 29.5472 0
      vertex 26.8215 29.5472 2.25
    endloop
  endfacet
  facet normal 0.951106 0.308864 0
    outer loop
      vertex 26.8215 29.5472 0
      vertex 26.9034 29.295 2.25
      vertex 26.9034 29.295 0
    endloop
  endfacet
  facet normal 0.974929 0.222518 0
    outer loop
      vertex 26.8215 29.5472 2.25
      vertex 26.7625 29.8057 0
      vertex 26.7625 29.8057 2.25
    endloop
  endfacet
  facet normal 0.974929 0.222518 0
    outer loop
      vertex 26.7625 29.8057 0
      vertex 26.8215 29.5472 2.25
      vertex 26.8215 29.5472 0
    endloop
  endfacet
  facet normal 0.657997 0.75302 -0
    outer loop
      vertex 27.8276 28.023 0
      vertex 27.6279 28.1975 2.25
      vertex 27.8276 28.023 2.25
    endloop
  endfacet
  facet normal 0.657997 0.75302 0
    outer loop
      vertex 27.6279 28.1975 2.25
      vertex 27.8276 28.023 0
      vertex 27.6279 28.1975 0
    endloop
  endfacet
  facet normal 0.587678 0.809095 -0
    outer loop
      vertex 28.0421 27.8672 0
      vertex 27.8276 28.023 2.25
      vertex 28.0421 27.8672 2.25
    endloop
  endfacet
  facet normal 0.587678 0.809095 0
    outer loop
      vertex 27.8276 28.023 2.25
      vertex 28.0421 27.8672 0
      vertex 27.8276 28.023 0
    endloop
  endfacet
endsolid OpenSCAD_Model
